<svg preserveAspectRatio="xMidYMid meet" width="100%" height="100%" overflow="visible" style="display: block;" viewBox="32 32 106.667 97.867" fill="none" xmlns="http://www.w3.org/2000/svg">
<g id="Container">
<path id="Icon" d="M85.3333 129.867L77.6 122.933C68.6222 114.844 61.2 107.867 55.3333 102C49.4667 96.1333 44.8 90.8667 41.3333 86.2C37.8667 81.5333 35.4444 77.2444 34.0667 73.3333C32.6889 69.4222 32 65.4222 32 61.3333C32 52.9778 34.8 46 40.4 40.4C46 34.8 52.9778 32 61.3333 32C65.9556 32 70.3556 32.9778 74.5333 34.9333C78.7111 36.8889 82.3111 39.6444 85.3333 43.2C88.3556 39.6444 91.9556 36.8889 96.1333 34.9333C100.311 32.9778 104.711 32 109.333 32C117.689 32 124.667 34.8 130.267 40.4C135.867 46 138.667 52.9778 138.667 61.3333C138.667 65.4222 137.978 69.4222 136.6 73.3333C135.222 77.2444 132.8 81.5333 129.333 86.2C125.867 90.8667 121.2 96.1333 115.333 102C109.467 107.867 102.044 114.844 93.0667 122.933L85.3333 129.867V129.867M85.3333 115.467C93.8667 107.822 100.889 101.267 106.4 95.8C111.911 90.3333 116.267 85.5778 119.467 81.5333C122.667 77.4889 124.889 73.8889 126.133 70.7333C127.378 67.5778 128 64.4444 128 61.3333C128 56 126.222 51.5556 122.667 48C119.111 44.4444 114.667 42.6667 109.333 42.6667C105.156 42.6667 101.289 43.8444 97.7333 46.2C94.1778 48.5556 91.7333 51.5556 90.4 55.2V55.2H80.2667V55.2C78.9333 51.5556 76.4889 48.5556 72.9333 46.2C69.3778 43.8444 65.5111 42.6667 61.3333 42.6667C56 42.6667 51.5556 44.4444 48 48C44.4444 51.5556 42.6667 56 42.6667 61.3333C42.6667 64.4444 43.2889 67.5778 44.5333 70.7333C45.7778 73.8889 48 77.4889 51.2 81.5333C54.4 85.5778 58.7556 90.3333 64.2667 95.8C69.7778 101.267 76.8 107.822 85.3333 115.467V115.467M85.3333 79.0667V79.0667V79.0667V79.0667V79.0667V79.0667V79.0667V79.0667V79.0667V79.0667V79.0667V79.0667V79.0667V79.0667V79.0667V79.0667V79.0667V79.0667V79.0667V79.0667V79.0667" fill="var(--fill-0, #3CBE40)"/>
</g>
</svg>
