<svg width="36" height="36" viewBox="0 0 36 36" fill="none" xmlns="http://www.w3.org/2000/svg">
<path d="M2.8 36L0 33.2L20.5 12.7C19.9 11.3 19.8167 9.71667 20.25 7.95C20.6833 6.18333 21.6333 4.6 23.1 3.2C24.8667 1.43333 26.8333 0.4 29 0.1C31.1667 -0.2 32.9333 0.333333 34.3 1.7C35.6667 3.06667 36.2 4.83333 35.9 7C35.6 9.16667 34.5667 11.1333 32.8 12.9C31.4 14.3667 29.8167 15.3167 28.05 15.75C26.2833 16.1833 24.7 16.1 23.3 15.5L20.8 18L36 33.2L33.2 36L18 20.9L2.8 36ZM8.7 18.9L2.7 12.9C0.9 11.1 0 8.95 0 6.45C0 3.95 0.9 1.8 2.7 0L15.1 12.5L8.7 18.9Z" fill="#3CBE40"/>
</svg>
