<svg width="20" height="22" viewBox="0 0 20 22" fill="none" xmlns="http://www.w3.org/2000/svg">
<path d="M2.16667 21.6667C1.57083 21.6667 1.06076 21.4545 0.636458 21.0302C0.212153 20.6059 0 20.0958 0 19.5V4.33333C0 3.7375 0.212153 3.22743 0.636458 2.80312C1.06076 2.37882 1.57083 2.16667 2.16667 2.16667H3.25V0H5.41667V2.16667H14.0833V0H16.25V2.16667H17.3333C17.9292 2.16667 18.4392 2.37882 18.8635 2.80312C19.2878 3.22743 19.5 3.7375 19.5 4.33333V19.5C19.5 20.0958 19.2878 20.6059 18.8635 21.0302C18.4392 21.4545 17.9292 21.6667 17.3333 21.6667H2.16667ZM2.16667 19.5H17.3333V8.66667H2.16667V19.5ZM2.16667 6.5H17.3333V4.33333H2.16667V6.5ZM2.16667 6.5V4.33333V6.5Z" fill="#94A3B8"/>
</svg>
