<svg width="20" height="20" viewBox="0 0 20 20" fill="none" xmlns="http://www.w3.org/2000/svg">
<path d="M1.51667 19.5L0 17.9833L11.1042 6.87917C10.7792 6.12083 10.734 5.26319 10.9688 4.30625C11.2035 3.34931 11.7181 2.49167 12.5125 1.73333C13.4694 0.776389 14.5347 0.216667 15.7083 0.0541667C16.8819 -0.108333 17.8389 0.180556 18.5792 0.920833C19.3194 1.66111 19.6083 2.61806 19.4458 3.79167C19.2833 4.96528 18.7236 6.03056 17.7667 6.9875C17.0083 7.78194 16.1507 8.29653 15.1938 8.53125C14.2368 8.76597 13.3792 8.72083 12.6208 8.39583L11.2667 9.75L19.5 17.9833L17.9833 19.5L9.75 11.3208L1.51667 19.5ZM4.7125 10.2375L1.4625 6.9875C0.4875 6.0125 0 4.84792 0 3.49375C0 2.13958 0.4875 0.975 1.4625 0L8.17917 6.77083L4.7125 10.2375Z" fill="#3CBE40"/>
</svg>
